<?xml version="1.0" standalone="no"?>
<!DOCTYPE svg PUBLIC "-//W3C//DTD SVG 20010904//EN"
 "http://www.w3.org/TR/2001/REC-SVG-20010904/DTD/svg10.dtd">
<svg version="1.0" xmlns="http://www.w3.org/2000/svg"
 width="652.000000pt" height="860.000000pt" viewBox="0 0 652.000000 860.000000"
 preserveAspectRatio="xMidYMid meet">
<metadata>
Created by potrace 1.12, written by Peter Selinger 2001-2015
</metadata>
<g transform="translate(0.000000,860.000000) scale(0.100000,-0.100000)"
fill="#000000" stroke="none">
<path d="M3000 8494 c-19 -2 -111 -11 -205 -20 -1073 -99 -2019 -567 -2488
-1231 -168 -239 -276 -540 -294 -820 -5 -93 -4 -103 11 -103 9 0 117 15 239
34 122 19 247 37 277 41 30 3 78 10 105 15 28 5 111 16 185 25 74 8 194 22
265 30 167 19 188 21 385 40 242 22 720 55 801 55 l69 0 -2 -1957 -3 -1958
-1040 -2 c-572 -1 -1046 -3 -1053 -3 -10 0 -12 -264 -10 -1302 l3 -1303 3038
-3 3037 -2 0 1305 0 1305 -22 0 c-13 0 -507 1 -1098 3 l-1075 2 0 1960 0 1960
100 -3 c122 -4 713 -47 920 -66 292 -28 785 -88 960 -116 158 -25 386 -60 396
-60 22 0 5 252 -25 365 -129 498 -474 919 -1030 1255 -470 283 -1060 469
-1706 536 -145 15 -658 27 -740 18z m720 -59 c232 -23 439 -57 650 -109 1049
-256 1836 -864 2042 -1580 33 -115 58 -258 58 -330 l0 -49 -42 6 c-24 4 -86
13 -138 22 -86 14 -267 40 -455 65 -922 126 -2072 186 -3040 161 -220 -6 -427
-13 -460 -15 -33 -3 -123 -8 -200 -11 -307 -13 -1044 -81 -1400 -129 -60 -9
-146 -20 -190 -26 -92 -12 -243 -35 -361 -56 -137 -24 -128 -30 -120 84 12
171 79 399 166 559 221 411 585 740 1110 1003 485 243 1011 374 1700 424 111
8 520 -4 680 -19z m350 -3830 c0 -1072 0 -1953 0 -1958 0 -4 -375 -6 -832 -5
l-833 3 -3 1958 -2 1957 835 -2 835 -3 0 -1950z m2196 -2006 c8 -14 5 -2512
-4 -2521 -4 -4 -1349 -7 -2988 -6 l-2979 3 -3 1255 c-1 690 0 1260 2 1266 5
13 5963 16 5972 3z"/>
</g>
</svg>
