<?xml version="1.0" standalone="no"?>
<!DOCTYPE svg PUBLIC "-//W3C//DTD SVG 20010904//EN"
 "http://www.w3.org/TR/2001/REC-SVG-20010904/DTD/svg10.dtd">
<svg version="1.0" xmlns="http://www.w3.org/2000/svg"
 width="664.000000pt" height="860.000000pt" viewBox="0 0 664.000000 860.000000"
 preserveAspectRatio="xMidYMid meet">
<metadata>
Created by potrace 1.12, written by Peter Selinger 2001-2015
</metadata>
<g transform="translate(0.000000,860.000000) scale(0.100000,-0.100000)"
fill="#000000" stroke="none">
<path d="M3060 8509 c-1031 -63 -1942 -438 -2488 -1022 -295 -316 -458 -675
-479 -1049 -3 -65 -3 -118 2 -118 4 0 44 31 89 68 334 281 738 510 1206 682
255 94 468 153 830 230 45 10 228 40 243 40 4 0 6 -1056 5 -2347 l-3 -2348
-1040 -2 c-572 -2 -1046 -3 -1052 -3 -10 0 -13 -268 -13 -1305 l0 -1305 3038
2 3037 3 3 1303 c2 1038 0 1302 -10 1302 -7 0 -501 1 -1098 3 l-1085 2 -3
2339 c-1 1287 1 2343 5 2347 5 4 28 4 53 -1 25 -4 88 -16 140 -25 353 -64 752
-183 1075 -320 377 -161 714 -364 991 -597 45 -37 85 -68 89 -68 5 0 5 49 2
110 -29 507 -317 986 -817 1357 -696 516 -1707 785 -2720 722z m722 -54 c301
-33 453 -58 668 -111 650 -160 1190 -442 1566 -818 133 -133 224 -246 297
-365 98 -159 181 -365 211 -522 19 -101 31 -219 21 -219 -4 0 -38 24 -74 53
-528 424 -1273 741 -2071 882 -385 68 -652 89 -1075 88 -354 -1 -531 -13 -845
-58 -549 -78 -1072 -234 -1535 -460 -300 -146 -502 -272 -726 -452 -36 -29
-70 -53 -74 -53 -11 0 1 133 21 226 165 801 1024 1475 2206 1730 131 28 283
51 523 78 174 20 705 20 887 1z m406 -3457 l-3 -2353 -830 0 -830 0 -3 2353
-2 2352 835 0 835 0 -2 -2352z m2198 -2399 c8 -14 4 -2513 -4 -2521 -4 -4
-1349 -7 -2988 -6 l-2979 3 -3 1255 c-1 690 0 1260 2 1266 5 13 5963 16 5972
3z"/>
</g>
</svg>
